<?xml version="1.0" encoding="UTF-8"?>
<svg id="Layer_1" data-name="Layer 1" xmlns="http://www.w3.org/2000/svg" xmlns:xlink="http://www.w3.org/1999/xlink" viewBox="0 0 16 16">
  <defs>
    <style>
      .cls-1 {
        fill: url(#_무제_그라디언트_2);
      }

      .cls-2 {
        fill: url(#_무제_그라디언트_2-3);
      }

      .cls-3 {
        fill: url(#_무제_그라디언트_2-2);
      }
    </style>
    <radialGradient id="_무제_그라디언트_2" data-name="무제 그라디언트 2" cx="4.69" cy="17.24" fx="4.69" fy="17.24" r="21.2" gradientUnits="userSpaceOnUse">
      <stop offset=".1" stop-color="#f7d27a"/>
      <stop offset=".16" stop-color="#f3c576"/>
      <stop offset=".26" stop-color="#eaa46b"/>
      <stop offset=".4" stop-color="#dc6e5b"/>
      <stop offset=".45" stop-color="#d75c56"/>
      <stop offset=".68" stop-color="#bf338c"/>
      <stop offset="1" stop-color="#5b62aa"/>
    </radialGradient>
    <radialGradient id="_무제_그라디언트_2-2" data-name="무제 그라디언트 2" cx="4.69" cy="17.24" fx="4.69" fy="17.24" r="21.2" xlink:href="#_무제_그라디언트_2"/>
    <radialGradient id="_무제_그라디언트_2-3" data-name="무제 그라디언트 2" cx="4.69" cy="17.24" fx="4.69" fy="17.24" r="21.2" xlink:href="#_무제_그라디언트_2"/>
  </defs>
  <path class="cls-1" d="M8.16,6.11c-1.06,0-1.91,.86-1.91,1.91s.86,1.91,1.91,1.91,1.91-.86,1.91-1.91-.86-1.91-1.91-1.91Z"/>
  <path class="cls-3" d="M9.87,3.12h-3.74c-1.66,0-3,1.35-3,3v3.74c0,1.66,1.35,3,3,3h3.74c1.66,0,3-1.34,3-3v-3.74c0-1.66-1.35-3-3-3Zm-1.71,8.07c-1.76,0-3.18-1.42-3.18-3.18s1.42-3.18,3.18-3.18,3.18,1.42,3.18,3.18-1.42,3.18-3.18,3.18Zm2.96-5.6c-.45,0-.81-.36-.81-.81s.36-.81,.81-.81,.81,.36,.81,.81-.36,.81-.81,.81Z"/>
  <path class="cls-2" d="M12.71,0H3.29C1.47,0,0,1.47,0,3.29V12.71c0,1.81,1.47,3.29,3.29,3.29H12.71c1.81,0,3.29-1.47,3.29-3.29V3.29c0-1.82-1.47-3.29-3.29-3.29Zm1.32,10.32c0,2.05-1.66,3.72-3.72,3.72H5.68c-2.05,0-3.72-1.66-3.72-3.72V5.69c0-2.05,1.66-3.72,3.72-3.72h4.63c2.05,0,3.72,1.66,3.72,3.72v4.63Z"/>
</svg>