<?xml version="1.0" encoding="UTF-8"?>
<svg id="Layer_1" data-name="Layer 1" xmlns="http://www.w3.org/2000/svg" viewBox="0 0 28 28">
  <defs>
    <style>
      .cls-1 {
        fill: #fff;
        stroke: #fff;
        stroke-miterlimit: 10;
        stroke-width: .5px;
      }

      .cls-2 {
        fill: #888;
      }
    </style>
  </defs>
  <rect class="cls-2" width="28" height="28" rx="5" ry="5"/>
  <g>
    <path class="cls-1" d="M14.18,16.62h-5.74l-1.01,2.34c-.25,.58-.37,1.01-.37,1.29,0,.23,.11,.42,.32,.6s.68,.28,1.39,.33v.4H4.11v-.4c.62-.11,1.02-.25,1.2-.43,.37-.35,.78-1.06,1.24-2.13L11.77,6.41h.38l5.16,12.34c.42,.99,.79,1.64,1.13,1.93s.81,.46,1.42,.5v.4h-5.85v-.4c.59-.03,.99-.13,1.2-.3s.31-.37,.31-.61c0-.32-.15-.83-.44-1.52l-.9-2.13Zm-.31-.81l-2.52-5.99-2.58,5.99h5.1Z"/>
    <path class="cls-1" d="M16.92,9.48h6.97v.84h-6.97v-.84Z"/>
  </g>
</svg>