<?xml version="1.0" encoding="UTF-8"?><svg id="Layer_1" xmlns="http://www.w3.org/2000/svg" xmlns:xlink="http://www.w3.org/1999/xlink" viewBox="0 0 30 30"><defs><style>.cls-1{clip-path:url(#clippath-2);}.cls-2{fill:#381e1f;}.cls-3{fill:#fae100;}.cls-4{clip-path:url(#clippath-1);}.cls-5{clip-path:url(#clippath);}.cls-6{fill:none;}.cls-7{clip-path:url(#clippath-3);}.cls-8{fill:#fcee21;}</style><clipPath id="clippath"><path class="cls-6" d="M6.74,10.52c-.72,0-.72,1.26,0,1.26h1.23s0,3.42,0,4.2c0,.57,1.28,.6,1.28,.03v-4.11s.42-.09,1.23-.09c.76,0,.76-1.29,0-1.29h-3.73Z"/></clipPath><clipPath id="clippath-1"><path class="cls-6" d="M12.77,12.1l.68,2.14h-1.42l.74-2.14Zm-.77-1c-.3,.67-1.39,3.81-1.76,4.64-.26,.6,.87,1.09,1.13,.49l.25-.86h2.25s-.08,.04,.22,.82c.24,.64,1.41,.2,1.17-.44-.34-.91-1.54-4.19-1.76-4.65-.1-.21-.46-.37-.81-.37-.29,0-.57,.11-.69,.37"/></clipPath><clipPath id="clippath-2"><path class="cls-6" d="M15.74,11.28c0,1.07,0,4.51,0,4.51,0,0-.1,.69,.49,.69s1.89,0,2.46,0,.57-1.23,0-1.23-1.63,0-1.63,0c0,0,0-3.18,0-3.96,0-.37-.33-.56-.66-.56s-.67,.19-.67,.56"/></clipPath><clipPath id="clippath-3"><path class="cls-6" d="M19.48,11.11c.01,.47-.01,4.7-.01,5.02,0,.49,1.26,.49,1.26,0,0-.57,0-1.67,0-1.67l.37-.3,1.62,2.21c.33,.43,1.36-.35,1.03-.78l-1.72-2.26s1.17-1.26,1.63-1.72c.27-.27-.56-1.1-.83-.84-.26,.26-2.09,2.09-2.09,2.09,0,0,.02-1.15,0-1.78,0-.24-.3-.36-.61-.36-.32,0-.65,.13-.65,.39"/></clipPath></defs><rect class="cls-8" width="30" height="30" rx="5" ry="5"/><g><path class="cls-2" d="M15,4.18c-6.51,0-11.78,4.17-11.78,9.31,0,3.35,2.24,6.28,5.59,7.93-.25,.92-.89,3.33-1.02,3.85-.16,.64,.23,.63,.49,.46,.2-.13,3.23-2.19,4.53-3.08,.71,.11,1.44,.16,2.19,.16,6.51,0,11.78-4.17,11.78-9.31S21.51,4.18,15,4.18"/><path class="cls-3" d="M6.74,10.52c-.72,0-.72,1.26,0,1.26h1.23s0,3.42,0,4.2c0,.57,1.28,.6,1.28,.03v-4.11s.42-.09,1.23-.09c.76,0,.76-1.29,0-1.29h-3.73Z"/><g class="cls-5"><rect class="cls-3" x="6.01" y="10.52" width="5.22" height="6.07"/></g><g class="cls-4"><rect class="cls-3" x="9.98" y="10.72" width="5.51" height="6.1"/></g><g class="cls-1"><rect class="cls-3" x="15.64" y="10.72" width="3.63" height="5.76"/></g><g class="cls-7"><rect class="cls-3" x="19.46" y="10.51" width="4.61" height="6.3"/></g></g></svg>