<?xml version="1.0" encoding="UTF-8"?><svg id="Layer_1" xmlns="http://www.w3.org/2000/svg" viewBox="0 0 30 30"><defs><style>.cls-1{fill:#fff;}.cls-2{fill:#4696d5;}</style></defs><rect class="cls-2" width="30" height="30" rx="5" ry="5"/><g><path class="cls-1" d="M13.52,10.44l3.04-3.04s3.04-3.04,6.09,0,0,6.09,0,6.09l-4.06,4.06s-3.04,3.04-6.09,0c-.57-.57-.92-1.33-.92-1.33l1.7-1.7s-.07,.69,.75,1.51c0,0,1.52,1.52,3.04,0l4.06-4.06s1.52-1.52,0-3.04c-1.52-1.52-3.04,0-3.04,0l-1.89,1.89s-.94-.77-2.86-.18l.19-.19Z"/><path class="cls-1" d="M16.48,19.56l-3.04,3.04s-3.04,3.04-6.09,0,0-6.09,0-6.09l4.06-4.06s3.04-3.04,6.09,0c.57,.57,.92,1.33,.92,1.33l-1.7,1.7s.07-.69-.75-1.51c0,0-1.52-1.52-3.04,0l-4.06,4.06s-1.52,1.52,0,3.04c1.52,1.52,3.04,0,3.04,0l1.89-1.89s.94,.77,2.86,.18l-.19,.19Z"/></g></svg>