<?xml version="1.0" encoding="UTF-8"?>
<svg id="Layer_1" data-name="Layer 1" xmlns="http://www.w3.org/2000/svg" viewBox="0 0 28 28">
  <defs>
    <style>
      .cls-1 {
        fill: #fff;
        stroke: #fff;
        stroke-miterlimit: 10;
        stroke-width: .5px;
      }

      .cls-2 {
        fill: #888;
      }
    </style>
  </defs>
  <rect class="cls-2" width="28" height="28" rx="5" ry="5"/>
  <g>
    <path class="cls-1" d="M23.1,21.13h-2.38c-.22,0-.4-.18-.4-.4s.18-.4,.4-.4h1.98V11.63H5.29v8.71h1.98c.22,0,.4,.18,.4,.4s-.18,.4-.4,.4h-2.38c-.22,0-.4-.18-.4-.4V11.23c0-.22,.18-.4,.4-.4H23.1c.22,0,.4,.18,.4,.4v9.5c0,.22-.18,.4-.4,.4Z"/>
    <path class="cls-1" d="M20.73,16.38H7.27c-.22,0-.4-.18-.4-.4s.18-.4,.4-.4h13.46c.22,0,.4,.18,.4,.4s-.18,.4-.4,.4Z"/>
    <path class="cls-1" d="M19.15,21.58H8.85c-.22,0-.4-.18-.4-.4v-5.4h.79v5h9.5v-5h.79v5.4c0,.22-.18,.4-.4,.4Z"/>
    <circle class="cls-1" cx="7.47" cy="13.21" r=".59"/>
    <circle class="cls-1" cx="9.84" cy="13.21" r=".59"/>
    <path class="cls-1" d="M16.77,19.2h-5.54c-.22,0-.4-.18-.4-.4s.18-.4,.4-.4h5.54c.22,0,.4,.18,.4,.4s-.18,.4-.4,.4Z"/>
    <path class="cls-1" d="M19.54,11.23h-.79V5.29H9.25v5.94h-.79V4.9c0-.22,.18-.4,.4-.4h10.29c.22,0,.4,.18,.4,.4v6.33Z"/>
  </g>
</svg>