<?xml version="1.0" encoding="UTF-8"?>
<svg id="Layer_2" data-name="Layer 2" xmlns="http://www.w3.org/2000/svg" viewBox="0 0 28.5 24">
  <defs>
    <style>
      .cls-1 {
        opacity: .2;
      }

      .cls-2 {
        fill: #231f20;
        stroke-width: 0px;
      }
    </style>
  </defs>
  <g id="Layer_1-2" data-name="Layer 1">
    <g class="cls-1">
      <path class="cls-2" d="m28.45,6.8C28.45,3.04,25.42,0,21.68,0c-3.74,0-6.77,3.04-6.77,6.8s3.03,6.8,6.77,6.8c.95,0,1.85-.2,2.67-.55h0c-1.47,6.84-5.76,10.19-5.76,10.19l.67.77C29.77,14.47,28.45,6.8,28.45,6.8Z"/>
      <path class="cls-2" d="m13.53,6.8c0-3.75-3.03-6.8-6.77-6.8S0,3.04,0,6.8s3.03,6.8,6.77,6.8c.95,0,1.85-.2,2.67-.55h0c-1.47,6.84-5.76,10.19-5.76,10.19l.67.77C14.85,14.47,13.53,6.8,13.53,6.8Z"/>
    </g>
  </g>
</svg>