<?xml version="1.0" encoding="UTF-8"?>
<svg id="Layer_2" data-name="Layer 2" xmlns="http://www.w3.org/2000/svg" viewBox="0 0 28.5 24">
  <defs>
    <style>
      .cls-1 {
        opacity: .2;
      }

      .cls-2 {
        fill: #231f20;
        stroke-width: 0px;
      }
    </style>
  </defs>
  <g id="Layer_1-2" data-name="Layer 1">
    <g class="cls-1">
      <path class="cls-2" d="m.05,17.2c0,3.75,3.03,6.8,6.77,6.8s6.77-3.04,6.77-6.8-3.03-6.8-6.77-6.8c-.95,0-1.85.2-2.67.55h0C5.62,4.12,9.91.77,9.91.77l-.67-.77C-1.27,9.53.05,17.2.05,17.2Z"/>
      <path class="cls-2" d="m14.97,17.2c0,3.75,3.03,6.8,6.77,6.8s6.77-3.04,6.77-6.8-3.03-6.8-6.77-6.8c-.95,0-1.85.2-2.67.55h0c1.47-6.84,5.76-10.19,5.76-10.19l-.67-.77c-10.52,9.53-9.19,17.2-9.19,17.2Z"/>
    </g>
  </g>
</svg>