<?xml version="1.0" encoding="UTF-8"?>
<svg id="Layer_1" data-name="Layer 1" xmlns="http://www.w3.org/2000/svg" viewBox="0 0 30 30">
  <defs>
    <style>
      .cls-1 {
        fill: #fff;
      }

      .cls-2 {
        fill: #f15a24;
      }
    </style>
  </defs>
  <rect class="cls-2" y="0" width="30" height="30" rx="5" ry="5"/>
  <g>
    <path class="cls-1" d="M25,15.14c0-1.22-1.01-2.19-2.18-2.19-.6,0-1.14,.24-1.53,.62-1.5-1.08-3.56-1.77-5.86-1.86l1.01-4.7,3.26,.71c.03,.83,.72,1.49,1.56,1.49s1.56-.71,1.56-1.56-.71-1.56-1.56-1.56c-.62,0-1.16,.36-1.4,.89l-3.65-.78c-.11-.05-.21,0-.29,.06-.09,.06-.14,.15-.15,.26l-1.11,5.23c-2.33,.08-4.43,.77-5.96,1.86-.39-.38-.93-.6-1.52-.6-1.22,0-2.19,.98-2.19,2.16,0,.92,.54,1.67,1.29,2.01-.03,.24-.05,.42-.05,.66,0,3.33,3.92,6.11,8.74,6.11s8.78-2.73,8.78-6.11c0-.21-.02-.42-.06-.66,.75-.35,1.29-1.11,1.29-2.01Z"/>
    <path class="cls-2" d="M18.74,20.26c.12,.14,.12,.42,0,.59-1.1,1.05-3.14,1.14-3.75,1.14s-2.63-.09-3.69-1.14c-.15-.17-.15-.45,0-.59,.17-.15,.42-.15,.57,0,.69,.69,2.12,.89,3.12,.89s2.49-.2,3.15-.89c.17-.15,.42-.15,.6,0"/>
    <path class="cls-2" d="M13.11,16.7c0-.86-.71-1.56-1.56-1.56s-1.56,.71-1.56,1.56,.71,1.58,1.56,1.56c.86,0,1.56-.71,1.56-1.56"/>
    <path class="cls-2" d="M18.42,15.14c-.86,0-1.56,.75-1.56,1.58s.71,1.56,1.56,1.56,1.56-.72,1.56-1.56-.71-1.58-1.56-1.58"/>
  </g>
</svg>