<?xml version="1.0" encoding="UTF-8"?><svg xmlns="http://www.w3.org/2000/svg" xmlns:xlink="http://www.w3.org/1999/xlink" viewBox="0 0 131.76 54"><defs><style>.cls-1,.cls-2{fill:#555;}.cls-3{fill:#fff;}.cls-2,.cls-4,.cls-5,.cls-6{fill-rule:evenodd;}.cls-7,.cls-6{fill:#777;}.cls-8{fill:#70b341;}.cls-4{fill:#afafaf;}.cls-9{fill:#707070;}.cls-10{fill:#e1e1e1;}.cls-11{fill:url(#radial-gradient);}.cls-5{fill:#a5a5a5;}.cls-12{fill:url(#_무제_그라디언트_19);}</style><radialGradient id="radial-gradient" cx="87.07" cy="-3.27" fx="87.07" fy="-3.27" r="20.43" gradientTransform="translate(1.81 .03) scale(.97)" gradientUnits="userSpaceOnUse"><stop offset="0" stop-color="#555"/><stop offset="1" stop-color="#141414"/></radialGradient><radialGradient id="_무제_그라디언트_19" cx="87.07" cy="17.35" fx="87.07" fy="17.35" r="20.43" gradientTransform="translate(1.81 .03) scale(.97)" gradientUnits="userSpaceOnUse"><stop offset="0" stop-color="gray"/><stop offset="1" stop-color="#4d4d4d"/></radialGradient></defs><g id="_레이어_1"><path class="cls-1" d="M2.53,7.73c0-2.87,2.33-5.2,5.2-5.2s5.2,2.33,5.2,5.2-2.33,5.2-5.2,5.2S2.53,10.6,2.53,7.73Zm15.02,7.63l-3.37-3.37c.81-1.22,1.29-2.69,1.29-4.26C15.46,3.47,11.99,0,7.73,0S0,3.47,0,7.73s3.47,7.73,7.73,7.73c1.57,0,3.04-.47,4.26-1.29l3.37,3.37c.6,.6,1.58,.6,2.19,0,.6-.6,.6-1.58,0-2.19Z"/><path class="cls-7" d="M2.53,27.73c0-2.87,2.33-5.2,5.2-5.2s5.2,2.33,5.2,5.2-2.33,5.2-5.2,5.2-5.2-2.33-5.2-5.2Zm15.02,7.63l-3.37-3.37c.81-1.22,1.29-2.69,1.29-4.26,0-4.26-3.47-7.73-7.73-7.73S0,23.47,0,27.73s3.47,7.73,7.73,7.73c1.57,0,3.04-.47,4.26-1.29l3.37,3.37c.6,.6,1.58,.6,2.19,0,.6-.6,.6-1.58,0-2.19Z"/><g><path class="cls-2" d="M20,3h16v2H20V3Z"/><path class="cls-2" d="M20,8h16v2H20v-2Z"/><path class="cls-2" d="M20,13h16v2H20v-2Z"/></g><path class="cls-7" d="M34.54,33.33l-3.41-3.41-1.42-1.42,1.41-1.41,3.41-3.41c.61-.61,.61-1.6,0-2.21-.61-.61-1.6-.61-2.21,0l-3.41,3.41-1.41,1.41-1.41-1.41-3.41-3.41s-1.18-1.03-2.21,0c-1.05,1.05,0,2.21,0,2.21,.51,.51,3.41,3.41,3.41,3.41l1.41,1.41-1.41,1.41-3.41,3.41s-1.03,1.18,0,2.21c1.05,1.05,2.21,0,2.21,0,.51-.51,3.41-3.41,3.41-3.41l1.41-1.41,1.42,1.42,3.41,3.41c.61,.61,1.6,.61,2.21,0,.61-.61,.61-1.6,0-2.21Z"/><path class="cls-11" d="M91.61,15.06c.37-4.56-2.64-6.19-3.76-6.7,1.16-.69,1.94-1.95,1.94-3.39,0-2.18-1.76-3.96-3.95-3.96-2.18,0-3.96,1.76-3.96,3.95,0,1.45,.77,2.71,1.93,3.4-1.11,.51-4.07,2.18-3.79,6.69,0,0-.13,1.87,5.78,1.96h.01c5.91-.07,5.79-1.94,5.79-1.94Z"/><path class="cls-12" d="M91.61,35.06c.37-4.56-2.64-6.19-3.76-6.7,1.16-.69,1.94-1.95,1.94-3.39,0-2.18-1.76-3.96-3.95-3.96-2.18,0-3.96,1.76-3.96,3.95,0,1.45,.77,2.71,1.93,3.4-1.11,.51-4.07,2.18-3.79,6.69,0,0-.13,1.87,5.78,1.96h.01c5.91-.07,5.79-1.94,5.79-1.94Z"/><g><circle class="cls-8" cx="8.5" cy="46.5" r="2.5"/><polygon class="cls-4" points="0 40 0 47 5 47 5 46 1.09 46 1 40 0 40"/></g><g><circle class="cls-10" cx="27" cy="47" r="7"/><path class="cls-7" d="M26.27,48.02c.1-.32,.22-.59,.36-.81,.14-.22,.33-.48,.56-.77,.18-.22,.32-.41,.42-.56,.1-.15,.18-.31,.25-.49,.07-.18,.1-.37,.1-.58h0c0-.34-.08-.59-.25-.77-.17-.18-.4-.27-.69-.27s-.53,.11-.7,.32c-.17,.21-.25,.52-.25,.9h0s-1.56,0-1.56,0h0c.02-.56,.13-1.04,.33-1.44,.2-.4,.49-.7,.86-.9s.8-.31,1.31-.31,.98,.09,1.35,.28,.66,.46,.86,.81c.2,.35,.3,.78,.3,1.28h0c0,.32-.04,.6-.13,.85-.08,.25-.19,.47-.31,.66s-.29,.41-.5,.67-.37,.48-.5,.67c-.12,.19-.23,.41-.31,.67s-.13,.55-.13,.88h-1.51c0-.41,.05-.77,.15-1.09Zm-.16,2.1h1.54v1.55h-1.54v-1.55Z"/></g></g><g id="_레이어_2"><polygon class="cls-2" points="40 6 40 9.21 44 13 48 9.21 48 6 44 9.79 40 6"/><polygon class="cls-6" points="40 26 40 29.21 44 33 48 29.21 48 26 44 29.79 40 26"/><polygon class="cls-2" points="60 13 60 9.79 64 6 68 9.79 68 13 64 9.21 60 13"/><polygon class="cls-6" points="60 33 60 29.79 64 26 68 29.79 68 33 64 29.21 60 33"/><path class="cls-5" d="M111.76,20l-6.36,7.57,6.36,7.57h-5.4l-6.36-7.57,6.36-7.57h5.4Z"/><path class="cls-5" d="M120,20l6.36,7.57-6.36,7.57h5.4l6.36-7.57-6.36-7.57h-5.4Z"/><path class="cls-9" d="M41.35,40.22c1.55,1.44,3.12,2.86,4.65,4.32,.84,.8,1.05,1.88,.17,2.77-.77,.79-1.62,1.51-2.43,2.26-.8,.74-1.59,1.48-2.39,2.22-.74,.68-1.85-.42-1.11-1.11,.82-.76,1.64-1.52,2.45-2.28,.58-.54,1.16-1.07,1.73-1.61,.19-.18,.72-.51,.72-.79s-.53-.61-.72-.79c-.56-.52-1.11-1.03-1.67-1.55-.84-.78-1.68-1.56-2.52-2.34-.74-.69,.37-1.79,1.11-1.11h0Z"/><path class="cls-3" d="M61.35,40.22c1.55,1.44,3.12,2.86,4.65,4.32,.84,.8,1.05,1.88,.17,2.77-.77,.79-1.62,1.51-2.43,2.26-.8,.74-1.59,1.48-2.39,2.22-.74,.68-1.85-.42-1.11-1.11,.82-.76,1.64-1.52,2.45-2.28,.58-.54,1.16-1.07,1.73-1.61,.19-.18,.72-.51,.72-.79s-.53-.61-.72-.79c-.56-.52-1.11-1.03-1.67-1.55-.84-.78-1.68-1.56-2.52-2.34-.74-.69,.37-1.79,1.11-1.11h0Z"/></g></svg>