<?xml version="1.0" encoding="UTF-8"?><svg id="_레이어_1" xmlns="http://www.w3.org/2000/svg" xmlns:xlink="http://www.w3.org/1999/xlink" viewBox="0 0 32 36"><defs><style>.cls-1{fill:url(#_쥔晤牆渾_藎雪猥粧_286-2);}.cls-2{fill:url(#_무제_그라디언트_4);}.cls-3{fill:#fff;}.cls-4{fill:url(#_쥔晤牆渾_藎雪猥粧_286);}.cls-5{fill:#363636;}.cls-6{fill:url(#_쥔晤牆渾_藎雪猥粧_6-2);}.cls-7{fill:url(#_쥔晤牆渾_藎雪猥粧_280-2);}.cls-8{fill:#006837;}.cls-9{fill:url(#_쥔晤牆渾_藎雪猥粧_288-2);}.cls-10{fill:url(#_무제_그라디언트_15);}.cls-11{fill:url(#_쥔晤牆渾_藎雪猥粧_288);}.cls-12{fill:url(#_쥔晤牆渾_藎雪猥粧_6);}.cls-13{mask:url(#mask-1);}.cls-14{mask:url(#mask);}.cls-15{fill:url(#_쥔晤牆渾_藎雪猥粧_280);}.cls-16{fill:#7a7a7a;}.cls-17{fill:#f2f2f2;}.cls-18{fill:#3c3c3c;}</style><linearGradient id="_쥔晤牆渾_藎雪猥粧_280" x1="16" y1="15.41" x2="16" y2=".59" gradientUnits="userSpaceOnUse"><stop offset=".17" stop-color="#fcfcfc"/><stop offset=".36" stop-color="#e6e6e6"/><stop offset=".76" stop-color="#b0b0b0"/><stop offset=".91" stop-color="#999"/><stop offset="1" stop-color="#7a7a7a"/></linearGradient><linearGradient id="_무제_그라디언트_4" x1="28.98" y1="8" x2="3.06" y2="8" gradientUnits="userSpaceOnUse"><stop offset="0" stop-color="gray"/><stop offset="1" stop-color="#a6a6a6"/></linearGradient><radialGradient id="_쥔晤牆渾_藎雪猥粧_286" cx="8.22" cy="8" fx="8.22" fy="8" r="6.49" gradientUnits="userSpaceOnUse"><stop offset=".65" stop-color="#fff"/><stop offset="1" stop-color="#000"/></radialGradient><mask id="mask" x="1.73" y="1.51" width="12.98" height="12.98" maskUnits="userSpaceOnUse"><path class="cls-4" d="M8.22,14.49c-3.58,0-6.49-2.91-6.49-6.49S4.64,1.51,8.22,1.51s6.49,2.91,6.49,6.49-2.91,6.49-6.49,6.49Z"/></mask><linearGradient id="_쥔晤牆渾_藎雪猥粧_288" x1="8.22" y1="13.72" x2="8.22" y2="2.28" gradientUnits="userSpaceOnUse"><stop offset="0" stop-color="#8c8c8c"/><stop offset="1" stop-color="#f5f5f5"/></linearGradient><linearGradient id="_쥔晤牆渾_藎雪猥粧_6" x1="8.22" y1="13.23" x2="8.22" y2="2.77" gradientUnits="userSpaceOnUse"><stop offset="0" stop-color="#b0b0b0"/><stop offset=".06" stop-color="#b8b8b8"/><stop offset=".29" stop-color="#d3d3d3"/><stop offset=".52" stop-color="#e7e7e7"/><stop offset=".76" stop-color="#f3f3f3"/><stop offset="1" stop-color="#f7f7f7"/></linearGradient><linearGradient id="_쥔晤牆渾_藎雪猥粧_280-2" x1="34" y1="35.41" x2="34" y2="20.59" gradientTransform="translate(50) rotate(-180) scale(1 -1)" xlink:href="#_쥔晤牆渾_藎雪猥粧_280"/><linearGradient id="_무제_그라디언트_15" x1="21.02" y1="28" x2="46.94" y2="28" gradientTransform="translate(50) rotate(-180) scale(1 -1)" gradientUnits="userSpaceOnUse"><stop offset="0" stop-color="#77b154"/><stop offset=".19" stop-color="#68a852"/><stop offset=".55" stop-color="#42924e"/><stop offset=".79" stop-color="#25814b"/><stop offset="1" stop-color="#00633e"/></linearGradient><radialGradient id="_쥔晤牆渾_藎雪猥粧_286-2" cx="26.43" cy="28" fx="26.43" fy="28" r="6.49" gradientTransform="translate(50.33) rotate(-180) scale(1.01 -1)" xlink:href="#_쥔晤牆渾_藎雪猥粧_286"/><mask id="mask-1" x="17.19" y="21.51" width="13.07" height="12.99" maskUnits="userSpaceOnUse"><path class="cls-1" d="M23.72,34.49c3.6,0,6.53-2.91,6.53-6.49s-2.93-6.49-6.53-6.49-6.53,2.91-6.53,6.49,2.93,6.49,6.53,6.49Z"/></mask><linearGradient id="_쥔晤牆渾_藎雪猥粧_288-2" x1="26.28" y1="33.72" x2="26.28" y2="22.28" gradientTransform="translate(50) rotate(-180) scale(1 -1)" xlink:href="#_쥔晤牆渾_藎雪猥粧_288"/><linearGradient id="_쥔晤牆渾_藎雪猥粧_6-2" x1="26.28" y1="33.23" x2="26.28" y2="22.77" gradientTransform="translate(50) rotate(-180) scale(1 -1)" xlink:href="#_쥔晤牆渾_藎雪猥粧_6"/></defs><g><rect class="cls-17" y="0" width="32" height="16" rx="8" ry="8"/><path class="cls-15" d="M8.38,15.41C4.26,15.41,.92,12.09,.92,8S4.26,.59,8.38,.59h15.25c4.11,0,7.46,3.32,7.46,7.41s-3.35,7.41-7.46,7.41H8.38Z"/><path class="cls-16" d="M8.38,14.36c-3.53,0-6.4-2.85-6.4-6.36S4.85,1.64,8.38,1.64h15.25c3.53,0,6.4,2.85,6.4,6.36s-2.87,6.36-6.4,6.36H8.38Z"/><path class="cls-2" d="M8.38,14.1c-3.38,0-6.14-2.74-6.14-6.1S4.99,1.9,8.38,1.9h15.25c3.38,0,6.14,2.74,6.14,6.1s-2.75,6.1-6.14,6.1H8.38Z"/><g><g class="cls-14"><circle class="cls-18" cx="8.22" cy="8" r="6.47" transform="translate(-1.44 14.19) rotate(-76.85)"/></g><g><circle class="cls-11" cx="8.22" cy="8" r="5.72"/><path class="cls-12" d="M8.22,13.23c-2.89,0-5.23-2.35-5.23-5.23S5.34,2.77,8.22,2.77s5.23,2.35,5.23,5.23-2.35,5.23-5.23,5.23Z"/><path class="cls-3" d="M8.22,2.92c2.86,0,5.19,2.31,5.23,5.16,0-.03,0-.05,0-.08,0-2.89-2.35-5.23-5.23-5.23S2.99,5.11,2.99,8c0,.03,0,.05,0,.08,.04-2.85,2.37-5.16,5.23-5.16Z"/></g></g></g><g><rect class="cls-17" y="20" width="32" height="16" rx="8" ry="8" transform="translate(32 56) rotate(-180)"/><path class="cls-7" d="M23.62,35.41c4.11,0,7.46-3.32,7.46-7.41s-3.35-7.41-7.46-7.41H8.38c-4.11,0-7.46,3.32-7.46,7.41s3.35,7.41,7.46,7.41h15.25Z"/><path class="cls-8" d="M23.62,34.36c3.53,0,6.4-2.85,6.4-6.36s-2.87-6.36-6.4-6.36H8.38c-3.53,0-6.4,2.85-6.4,6.36s2.87,6.36,6.4,6.36h15.25Z"/><path class="cls-10" d="M23.62,34.1c3.38,0,6.14-2.74,6.14-6.1s-2.75-6.1-6.14-6.1H8.38c-3.38,0-6.14,2.74-6.14,6.1s2.75,6.1,6.14,6.1h15.25Z"/><g><g class="cls-13"><ellipse class="cls-5" cx="23.72" cy="28" rx="6.51" ry="6.47"/></g><g><ellipse class="cls-9" cx="23.72" cy="28" rx="5.76" ry="5.72"/><path class="cls-6" d="M23.72,33.23c2.9,0,5.27-2.35,5.27-5.23s-2.36-5.23-5.27-5.23-5.27,2.35-5.27,5.23,2.36,5.23,5.27,5.23Z"/><path class="cls-3" d="M23.72,22.92c-2.88,0-5.22,2.31-5.27,5.16,0-.03,0-.05,0-.08,0-2.89,2.36-5.23,5.27-5.23s5.27,2.35,5.27,5.23c0,.03,0,.05,0,.08-.04-2.85-2.39-5.16-5.27-5.16Z"/></g></g></g></svg>