<?xml version="1.0" encoding="UTF-8"?><svg id="_레이어_1" xmlns="http://www.w3.org/2000/svg" viewBox="0 0 122 47"><defs><style>.cls-1{fill:#e6e6e6;}.cls-2{fill:#f7931e;}.cls-3{fill:#3fa9f5;}.cls-4{fill:gray;}.cls-5{fill:#0071bc;}.cls-6{fill:#999;}.cls-7{fill:#ccc;}.cls-8{fill:#fbb03b;}.cls-9{fill:#bcae00;}.cls-10{fill:#666;}.cls-11{fill:#ff0;}</style></defs><g><path class="cls-8" d="M11,16.69c-3.13,0-5.69-2.55-5.69-5.69s2.55-5.69,5.69-5.69,5.69,2.55,5.69,5.69-2.55,5.69-5.69,5.69Z"/><path class="cls-2" d="M11,16.69c-3.13,0-5.69-2.55-5.69-5.69s2.55-5.69,5.69-5.69,5.69,2.55,5.69,5.69-2.55,5.69-5.69,5.69Zm0-10.12c-2.45,0-4.44,1.99-4.44,4.44s1.99,4.44,4.44,4.44,4.44-1.99,4.44-4.44-1.99-4.44-4.44-4.44Z"/><g><path class="cls-2" d="M11,22c-.34,0-.62-.28-.62-.62v-2.74c0-.34,.28-.62,.62-.62s.62,.28,.62,.62v2.74c0,.34-.28,.62-.62,.62Z"/><path class="cls-2" d="M11,3.99c-.34,0-.62-.28-.62-.62V.62c0-.34,.28-.62,.62-.62s.62,.28,.62,.62V3.37c0,.34-.28,.62-.62,.62Z"/></g><g><path class="cls-2" d="M3.37,11.62H.62C.28,11.62,0,11.34,0,11s.28-.62,.62-.62H3.37c.34,0,.62,.28,.62,.62s-.28,.62-.62,.62Z"/><path class="cls-2" d="M21.38,11.62h-2.75c-.34,0-.62-.28-.62-.62s.28-.62,.62-.62h2.75c.34,0,.62,.28,.62,.62s-.28,.62-.62,.62Z"/></g><g><path class="cls-2" d="M3.66,18.96c-.16,0-.32-.06-.44-.18-.24-.24-.24-.64,0-.88l1.94-1.94c.24-.24,.64-.24,.88,0,.24,.24,.24,.64,0,.88l-1.94,1.94c-.12,.12-.28,.18-.44,.18Z"/><path class="cls-2" d="M16.4,6.23c-.16,0-.32-.06-.44-.18-.24-.24-.24-.64,0-.88l1.94-1.94c.24-.24,.64-.24,.88,0,.24,.24,.24,.64,0,.88l-1.94,1.94c-.12,.12-.28,.18-.44,.18Z"/></g><g><path class="cls-2" d="M5.6,6.23c-.16,0-.32-.06-.44-.18l-1.94-1.94c-.24-.24-.24-.64,0-.88,.24-.24,.64-.24,.88,0l1.94,1.94c.24,.24,.24,.64,0,.88-.12,.12-.28,.18-.44,.18Z"/><path class="cls-2" d="M18.34,18.96c-.16,0-.32-.06-.44-.18l-1.94-1.94c-.24-.24-.24-.64,0-.88,.24-.24,.64-.24,.88,0l1.94,1.94c.24,.24,.24,.64,0,.88-.12,.12-.28,.18-.44,.18Z"/></g></g><g><path class="cls-1" d="M92.97,15.27h-13.66c-2.38,0-4.31-1.94-4.31-4.31,0-1.95,1.28-3.61,3.1-4.14,.36-2.83,2.76-4.98,5.67-4.98,1.52,0,2.96,.6,4.02,1.65,.63-.35,1.34-.53,2.08-.53,2.39,0,4.34,1.95,4.34,4.34,0,.04,0,.08,0,.12,1.65,.53,2.79,2.05,2.79,3.83,0,2.22-1.81,4.03-4.03,4.03Z"/><path class="cls-6" d="M92.97,15.27c-.36,0-.66-.3-.66-.66s.3-.66,.66-.66c1.49,0,2.7-1.21,2.7-2.7,0-1.34-.96-2.46-2.28-2.67-.17-.03-.33-.12-.43-.27-.1-.14-.14-.32-.11-.5,.03-.17,.04-.35,.04-.51,0-1.66-1.35-3.02-3.02-3.02-.65,0-1.28,.21-1.8,.6-.28,.21-.68,.16-.91-.11-.84-1.02-2.08-1.61-3.4-1.61-2.37,0-4.3,1.86-4.39,4.22-.01,.31-.24,.58-.55,.63-1.45,.24-2.51,1.48-2.51,2.95,0,1.65,1.34,2.99,2.99,2.99,.36,0,.66,.3,.66,.66s-.3,.66-.66,.66c-2.38,0-4.31-1.94-4.31-4.31,0-1.95,1.28-3.61,3.1-4.14,.36-2.83,2.76-4.98,5.67-4.98,1.52,0,2.96,.6,4.02,1.65,.64-.35,1.34-.53,2.08-.53,2.39,0,4.34,1.95,4.34,4.34,0,.04,0,.08,0,.12,1.65,.53,2.79,2.05,2.79,3.83,0,2.22-1.81,4.03-4.03,4.03Z"/><g><path class="cls-5" d="M79.34,20.17c-.1,0-.21-.02-.31-.07-.36-.17-.52-.6-.35-.97l3.21-6.78c.17-.36,.6-.52,.97-.35,.36,.17,.52,.6,.35,.97l-3.21,6.78c-.12,.26-.39,.42-.66,.42Z"/><path class="cls-5" d="M83.92,20.17c-.1,0-.21-.02-.31-.07-.36-.17-.52-.6-.35-.97l3.21-6.78c.17-.36,.6-.52,.97-.35,.36,.17,.52,.6,.35,.97l-3.21,6.78c-.12,.26-.39,.42-.66,.42Z"/><path class="cls-5" d="M88.49,20.17c-.1,0-.21-.02-.31-.07-.36-.17-.52-.6-.35-.97l3.21-6.78c.17-.36,.6-.52,.97-.35,.36,.17,.52,.6,.35,.97l-3.21,6.78c-.12,.26-.39,.42-.66,.42Z"/></g></g><g><g><path class="cls-1" d="M67.97,38.95h-13.66c-2.38,0-4.31-1.94-4.31-4.31,0-1.95,1.28-3.61,3.1-4.14,.36-2.83,2.76-4.98,5.67-4.98,1.52,0,2.96,.6,4.02,1.65,.63-.35,1.34-.53,2.08-.53,2.39,0,4.34,1.95,4.34,4.34,0,.04,0,.08,0,.12,1.65,.53,2.79,2.05,2.79,3.83,0,2.22-1.81,4.03-4.03,4.03Z"/><path class="cls-6" d="M67.97,38.95h.12c-.36,0-.66-.3-.66-.66s.3-.66,.66-.66h-.12c1.49,0,2.7-1.21,2.7-2.7,0-1.34-.96-2.46-2.28-2.67-.17-.03-.33-.12-.43-.27-.1-.14-.14-.32-.11-.5,.03-.17,.04-.35,.04-.51,0-1.66-1.35-3.02-3.02-3.02-.65,0-1.28,.21-1.8,.6-.28,.21-.68,.16-.91-.11-.84-1.02-2.08-1.61-3.4-1.61-2.37,0-4.3,1.86-4.39,4.23-.01,.31-.24,.58-.55,.63-1.45,.24-2.51,1.48-2.51,2.95,0,1.65,1.34,2.99,2.99,2.99,.36,0,.66,.3,.66,.66s-.3,.66-.66,.66c-2.38,0-4.31-1.94-4.31-4.31,0-1.95,1.28-3.61,3.1-4.14,.36-2.83,2.76-4.98,5.67-4.98,1.52,0,2.96,.6,4.02,1.65,.64-.35,1.34-.53,2.08-.53,2.39,0,4.34,1.95,4.34,4.34,0,.04,0,.08,0,.12,1.65,.53,2.79,2.05,2.79,3.83,0,2.22-1.81,4.03-4.03,4.03Z"/></g><g><g><path class="cls-5" d="M53.7,45.16c-.09,0-.19-.02-.28-.06-.33-.16-.47-.55-.31-.88l2.92-6.17c.16-.33,.55-.47,.88-.31,.33,.16,.47,.55,.31,.88l-2.92,6.17c-.11,.24-.35,.38-.6,.38Z"/><path class="cls-5" d="M57.85,45.16c-.09,0-.19-.02-.28-.06-.33-.16-.47-.55-.31-.88l2.92-6.17c.16-.33,.55-.47,.88-.31,.33,.16,.47,.55,.31,.88l-2.92,6.17c-.11,.24-.35,.38-.6,.38Z"/></g><g><path class="cls-3" d="M64.71,42.82c-.35,0-.64-.28-.64-.64v-4.58c0-.35,.28-.64,.64-.64s.64,.28,.64,.64v4.58c0,.35-.28,.64-.64,.64Z"/><path class="cls-3" d="M66.69,41.68c-.11,0-.22-.03-.32-.09l-3.96-2.29c-.3-.18-.41-.56-.23-.87,.18-.3,.56-.41,.87-.23l3.96,2.29c.3,.18,.41,.56,.23,.87-.12,.2-.33,.32-.55,.32Z"/><path class="cls-3" d="M62.73,41.68c-.22,0-.43-.11-.55-.32-.18-.3-.07-.69,.23-.87l3.96-2.29c.3-.18,.69-.07,.87,.23,.18,.3,.07,.69-.23,.87l-3.96,2.29c-.1,.06-.21,.09-.32,.09Z"/></g><g><path class="cls-3" d="M62,46.49c-.25,0-.45-.2-.45-.45v-3.2c0-.25,.2-.45,.45-.45s.45,.2,.45,.45v3.2c0,.25-.2,.45-.45,.45Z"/><path class="cls-3" d="M63.39,45.69c-.08,0-.15-.02-.22-.06l-2.77-1.6c-.21-.12-.29-.4-.16-.61,.12-.21,.4-.29,.61-.16l2.77,1.6c.21,.12,.29,.4,.16,.61-.08,.14-.23,.22-.39,.22Z"/><path class="cls-3" d="M60.61,45.69c-.15,0-.3-.08-.39-.22-.12-.21-.05-.49,.16-.61l2.77-1.6c.21-.12,.49-.05,.61,.16,.12,.21,.05,.49-.16,.61l-2.77,1.6c-.07,.04-.15,.06-.22,.06Z"/></g></g></g><g><g><path class="cls-1" d="M17.97,38.83H4.31c-2.38,0-4.31-1.94-4.31-4.31,0-1.95,1.28-3.61,3.1-4.14,.36-2.83,2.76-4.98,5.67-4.98,1.52,0,2.96,.6,4.02,1.65,.63-.35,1.34-.53,2.08-.53,2.39,0,4.34,1.95,4.34,4.34,0,.04,0,.08,0,.12,1.65,.53,2.79,2.05,2.79,3.83,0,2.22-1.81,4.03-4.03,4.03Z"/><path class="cls-6" d="M17.97,38.83h.12c-.36,0-.66-.3-.66-.66s.3-.66,.66-.66h-.12c1.49,0,2.7-1.21,2.7-2.7,0-1.34-.96-2.46-2.28-2.67-.17-.03-.33-.12-.43-.27-.1-.14-.14-.32-.11-.5,.03-.17,.04-.35,.04-.51,0-1.66-1.35-3.02-3.02-3.02-.65,0-1.28,.21-1.8,.6-.28,.21-.68,.16-.91-.11-.84-1.02-2.08-1.61-3.4-1.61-2.37,0-4.3,1.86-4.39,4.23-.01,.31-.24,.58-.55,.63-1.45,.24-2.51,1.48-2.51,2.95,0,1.65,1.34,2.99,2.99,2.99,.36,0,.66,.3,.66,.66s-.3,.66-.66,.66c-2.38,0-4.31-1.94-4.31-4.31,0-1.95,1.28-3.61,3.1-4.14,.36-2.83,2.76-4.98,5.67-4.98,1.52,0,2.96,.6,4.02,1.65,.64-.35,1.34-.53,2.08-.53,2.39,0,4.34,1.95,4.34,4.34,0,.04,0,.08,0,.12,1.65,.53,2.79,2.05,2.79,3.83,0,2.22-1.81,4.03-4.03,4.03Z"/></g><g><g><path class="cls-5" d="M3.7,45.04c-.09,0-.19-.02-.28-.06-.33-.16-.47-.55-.31-.88l2.92-6.17c.16-.33,.55-.47,.88-.31,.33,.16,.47,.55,.31,.88l-2.92,6.17c-.11,.24-.35,.38-.6,.38Z"/><path class="cls-5" d="M7.85,45.04c-.09,0-.19-.02-.28-.06-.33-.16-.47-.55-.31-.88l2.92-6.17c.16-.33,.55-.47,.88-.31,.33,.16,.47,.55,.31,.88l-2.92,6.17c-.11,.24-.35,.38-.6,.38Z"/></g><g><path class="cls-11" d="M17.53,39.96c-.04-.14-.15-.23-.26-.23h-2.39l1.46-3.85c.06-.16,.03-.36-.08-.47-.11-.11-.26-.09-.36,.03l-4.67,6.08c-.08,.11-.11,.27-.06,.41,.04,.14,.15,.23,.26,.23h2.17l-1.1,3.94c-.05,.17,0,.35,.11,.45,.05,.04,.1,.06,.15,.06,.07,0,.15-.04,.2-.11l4.53-6.13c.08-.11,.1-.27,.06-.41Z"/><path class="cls-9" d="M17.53,39.96c-.04-.14-.15-.23-.26-.23h-2.39l1.46-3.85c.06-.16,.03-.36-.08-.47-.11-.11-.26-.09-.36,.03l-4.67,6.08c-.08,.11-.11,.27-.06,.41,.04,.14,.15,.23,.26,.23h2.17l-1.1,3.94c-.05,.17,0,.35,.11,.45,.05,.04,.1,.06,.15,.06,.07,0,.15-.04,.2-.11l4.53-6.13c.08-.11,.1-.27,.06-.41Zm-4.45,5.53l1.17-3.57c.03-.12,.02-.24-.03-.35-.05-.1-.14-.16-.23-.16h-1.88l3.55-5.01-1.48,3.54c-.04,.12-.04,.25,.01,.37,.05,.11,.14,.18,.24,.18h2.18l-3.52,5.01Z"/></g><g><path class="cls-11" d="M11.95,33.25c-.03-.1-.11-.17-.19-.17h-1.78l1.09-2.86c.05-.12,.02-.27-.06-.35-.08-.08-.2-.07-.27,.02l-3.47,4.51c-.06,.08-.08,.2-.05,.3,.03,.1,.11,.17,.19,.17h1.61l-.82,2.93c-.03,.12,0,.26,.08,.33,.03,.03,.07,.04,.11,.04,.05,0,.11-.03,.15-.08l3.36-4.55c.06-.08,.08-.2,.04-.3Z"/><path class="cls-9" d="M11.95,33.25c-.03-.1-.11-.17-.19-.17h-1.78l1.09-2.86c.05-.12,.02-.27-.06-.35-.08-.08-.2-.07-.27,.02l-3.47,4.51c-.06,.08-.08,.2-.05,.3,.03,.1,.11,.17,.19,.17h1.61l-.82,2.93c-.03,.12,0,.26,.08,.33,.03,.03,.07,.04,.11,.04,.05,0,.11-.03,.15-.08l3.36-4.55c.06-.08,.08-.2,.04-.3Zm-3.3,4.11l.87-2.65c.02-.09,.02-.18-.02-.26-.04-.07-.1-.12-.17-.12h-1.4l2.63-3.72-1.1,2.63c-.03,.09-.03,.19,0,.27,.04,.08,.11,.13,.18,.13h1.62l-2.61,3.72Z"/></g></g></g><g><path class="cls-1" d="M117.97,14.62h-13.66c-2.38,0-4.31-1.94-4.31-4.31,0-1.95,1.28-3.61,3.1-4.14,.36-2.83,2.76-4.98,5.67-4.98,1.52,0,2.96,.6,4.02,1.65,.63-.35,1.34-.53,2.08-.53,2.39,0,4.34,1.95,4.34,4.34,0,.04,0,.08,0,.12,1.65,.53,2.79,2.05,2.79,3.83,0,2.22-1.81,4.03-4.03,4.03Z"/><g><g><path class="cls-5" d="M106.27,16.52c-.09,0-.19-.02-.28-.06-.33-.16-.47-.55-.31-.88l.88-1.87c.16-.33,.55-.47,.88-.31,.33,.16,.47,.55,.31,.88l-.88,1.87c-.11,.24-.35,.38-.6,.38Z"/><path class="cls-5" d="M104.24,20.82c-.09,0-.19-.02-.28-.06-.33-.16-.47-.55-.31-.88l.88-1.87c.16-.33,.55-.47,.88-.31,.33,.16,.47,.55,.31,.88l-.88,1.87c-.11,.24-.35,.38-.6,.38Z"/></g><g><path class="cls-5" d="M110.43,16.52c-.09,0-.19-.02-.28-.06-.33-.16-.47-.55-.31-.88l.88-1.87c.16-.33,.55-.47,.88-.31,.33,.16,.47,.55,.31,.88l-.88,1.87c-.11,.24-.35,.38-.6,.38Z"/><path class="cls-5" d="M108.39,20.82c-.09,0-.19-.02-.28-.06-.33-.16-.47-.55-.31-.88l.88-1.87c.16-.33,.55-.47,.88-.31,.33,.16,.47,.55,.31,.88l-.88,1.87c-.11,.24-.35,.38-.6,.38Z"/></g><g><path class="cls-5" d="M114.59,16.52c-.09,0-.19-.02-.28-.06-.33-.16-.47-.55-.31-.88l.88-1.87c.16-.33,.55-.47,.88-.31,.33,.16,.47,.55,.31,.88l-.88,1.87c-.11,.24-.35,.38-.6,.38Z"/><path class="cls-5" d="M112.55,20.82c-.09,0-.19-.02-.28-.06-.33-.16-.47-.55-.31-.88l.88-1.87c.16-.33,.55-.47,.88-.31,.33,.16,.47,.55,.31,.88l-.88,1.87c-.11,.24-.35,.38-.6,.38Z"/></g></g><path class="cls-6" d="M117.97,14.62c-.36,0-.66-.3-.66-.66s.3-.66,.66-.66c1.49,0,2.7-1.21,2.7-2.7,0-1.34-.96-2.46-2.28-2.67-.17-.03-.33-.12-.43-.27-.1-.14-.14-.32-.11-.5,.03-.17,.04-.35,.04-.51,0-1.66-1.35-3.02-3.02-3.02-.65,0-1.28,.21-1.8,.6-.28,.21-.68,.16-.91-.11-.84-1.02-2.08-1.61-3.4-1.61-2.37,0-4.3,1.86-4.39,4.22-.01,.31-.24,.58-.55,.63-1.45,.24-2.51,1.48-2.51,2.95,0,1.65,1.34,2.99,2.99,2.99,.36,0,.66,.3,.66,.66s-.3,.66-.66,.66c-2.38,0-4.31-1.94-4.31-4.31,0-1.95,1.28-3.61,3.1-4.14,.36-2.83,2.76-4.98,5.67-4.98,1.52,0,2.96,.6,4.02,1.65,.64-.35,1.34-.53,2.08-.53,2.39,0,4.34,1.95,4.34,4.34,0,.04,0,.08,0,.12,1.65,.53,2.79,2.05,2.79,3.83,0,2.22-1.81,4.03-4.03,4.03Z"/></g><g><path class="cls-7" d="M43.85,14.16h-9.95c-1.73,0-3.14-1.41-3.14-3.14,0-1.42,.93-2.63,2.26-3.02,.26-2.06,2.01-3.63,4.13-3.63,1.11,0,2.15,.43,2.93,1.21,.46-.25,.98-.39,1.52-.39,1.74,0,3.16,1.42,3.16,3.16,0,.03,0,.06,0,.09,1.2,.38,2.03,1.49,2.03,2.79,0,1.62-1.32,2.93-2.93,2.93Z"/><path class="cls-6" d="M39.55,17.87h-11.06c-1.93,0-3.49-1.57-3.49-3.49,0-1.58,1.03-2.93,2.51-3.35,.29-2.29,2.23-4.04,4.59-4.04,1.23,0,2.39,.48,3.26,1.34,.51-.28,1.09-.43,1.69-.43,1.94,0,3.51,1.58,3.51,3.51,0,.03,0,.06,0,.1,1.33,.43,2.25,1.66,2.25,3.1,0,1.8-1.46,3.26-3.26,3.26Z"/><path class="cls-4" d="M43.92,14.36h-1.67c-.3,0-.53-.24-.53-.53s.24-.53,.53-.53h1.67c1.11,0,2.01-.9,2.01-2.01,0-.99-.71-1.83-1.69-1.98-.14-.02-.27-.1-.35-.22-.08-.12-.12-.26-.09-.4,.02-.13,.03-.26,.03-.38,0-1.24-1.01-2.24-2.24-2.24-.49,0-.95,.15-1.34,.44-.23,.17-.55,.13-.73-.09-.63-.76-1.55-1.2-2.54-1.2-1.53,0-2.84,1.03-3.19,2.52-.07,.29-.36,.46-.64,.4-.29-.07-.46-.36-.4-.64,.47-1.97,2.21-3.34,4.23-3.34,1.15,0,2.23,.45,3.04,1.24,.48-.26,1.01-.39,1.57-.39,1.83,0,3.31,1.49,3.31,3.31,0,.02,0,.04,0,.06,1.24,.41,2.1,1.57,2.1,2.92,0,1.7-1.38,3.08-3.08,3.08Z"/><path class="cls-10" d="M39.55,17.87h-11.06c-1.93,0-3.49-1.57-3.49-3.49,0-1.58,1.03-2.93,2.51-3.35,.29-2.29,2.23-4.04,4.59-4.04,1.23,0,2.39,.48,3.26,1.34,.51-.28,1.09-.43,1.69-.43,1.94,0,3.51,1.58,3.51,3.51,0,.03,0,.06,0,.1,1.33,.43,2.25,1.66,2.25,3.1,0,1.8-1.46,3.26-3.26,3.26Zm-7.45-9.81c-1.92,0-3.48,1.5-3.55,3.42,0,.25-.2,.47-.45,.51-1.18,.19-2.03,1.2-2.03,2.39,0,1.34,1.09,2.42,2.42,2.42h11.06c1.21,0,2.19-.98,2.19-2.19,0-1.08-.78-1.99-1.85-2.16-.14-.02-.27-.1-.35-.22-.08-.12-.12-.26-.09-.4,.02-.14,.04-.28,.04-.42,0-1.35-1.1-2.44-2.44-2.44-.53,0-1.03,.17-1.46,.48-.23,.17-.55,.13-.73-.09-.68-.83-1.68-1.3-2.75-1.3Z"/></g><g><g><path class="cls-1" d="M42.42,37.38h-12.58c-2.19,0-3.97-1.78-3.97-3.97,0-1.79,1.18-3.33,2.86-3.82,.33-2.61,2.54-4.59,5.22-4.59,1.4,0,2.72,.55,3.7,1.52,.58-.32,1.24-.49,1.92-.49,2.2,0,4,1.79,4,4,0,.04,0,.07,0,.11,1.52,.48,2.57,1.89,2.57,3.53,0,2.04-1.66,3.71-3.71,3.71Z"/><path class="cls-6" d="M42.42,37.38h-2.06c-.34,0-.61-.27-.61-.61s.27-.61,.61-.61h2.06c1.37,0,2.49-1.12,2.49-2.49,0-1.23-.88-2.27-2.1-2.46-.16-.03-.3-.11-.4-.25-.09-.13-.13-.3-.11-.46,.03-.16,.04-.32,.04-.47,0-1.53-1.25-2.78-2.78-2.78-.6,0-1.18,.19-1.66,.55-.26,.19-.63,.15-.83-.1-.77-.94-1.91-1.48-3.13-1.48-2.18,0-3.96,1.71-4.04,3.89-.01,.29-.22,.53-.51,.58-1.34,.22-2.31,1.36-2.31,2.72,0,1.52,1.24,2.76,2.76,2.76h1.81c.34,0,.61,.27,.61,.61s-.27,.61-.61,.61h-1.81c-2.19,0-3.97-1.78-3.97-3.97,0-1.79,1.18-3.33,2.86-3.82,.33-2.61,2.54-4.59,5.22-4.59,1.4,0,2.72,.55,3.7,1.52,.58-.32,1.24-.49,1.92-.49,2.2,0,4,1.79,4,4,0,.04,0,.07,0,.11,1.52,.48,2.57,1.89,2.57,3.53,0,2.04-1.66,3.71-3.71,3.71Z"/></g><g><path class="cls-11" d="M40.78,36.4c-.07-.22-.23-.37-.41-.37h-3.81l2.33-6.13c.1-.26,.04-.58-.13-.75-.18-.17-.42-.15-.58,.05l-7.45,9.68c-.13,.17-.17,.43-.1,.65,.07,.23,.23,.37,.42,.37h3.45l-1.76,6.28c-.07,.26,0,.56,.18,.71,.07,.06,.16,.09,.24,.09,.12,0,.23-.06,.32-.18l7.21-9.77c.13-.17,.16-.43,.09-.65Z"/><path class="cls-9" d="M40.78,36.4c-.07-.22-.23-.37-.41-.37h-3.81l2.33-6.13c.1-.26,.04-.58-.13-.75-.18-.17-.42-.15-.58,.05l-7.45,9.68c-.13,.17-.17,.43-.1,.65,.07,.23,.23,.37,.42,.37h3.45l-1.76,6.28c-.07,.26,0,.56,.18,.71,.07,.06,.16,.09,.24,.09,.12,0,.23-.06,.32-.18l7.21-9.77c.13-.17,.16-.43,.09-.65Zm-7.09,8.81l1.86-5.69c.05-.18,.03-.39-.05-.55-.08-.16-.22-.26-.37-.26h-3l5.65-7.99-2.36,5.63c-.07,.19-.06,.41,.02,.58,.08,.18,.23,.28,.38,.28h3.47l-5.6,7.98Z"/></g></g><g><g><path class="cls-2" d="M63.76,5.92c-.27,0-.5-.22-.5-.5v-1.67c0-.27,.22-.5,.5-.5s.5,.22,.5,.5v1.67c0,.27-.22,.5-.5,.5Z"/><path class="cls-2" d="M71.5,12h-1.67c-.27,0-.5-.22-.5-.5s.22-.5,.5-.5h1.67c.27,0,.5,.22,.5,.5s-.22,.5-.5,.5Z"/><path class="cls-2" d="M68.06,7.7c-.13,0-.25-.05-.35-.15-.19-.19-.19-.51,0-.7l1.18-1.18c.19-.19,.51-.19,.7,0,.19,.19,.19,.51,0,.7l-1.18,1.18c-.1,.1-.22,.15-.35,.15Z"/><g><path class="cls-2" d="M59.46,7.7c-.13,0-.25-.05-.35-.15l-1.18-1.18c-.19-.19-.19-.51,0-.7,.19-.19,.51-.19,.7,0l1.18,1.18c.19,.19,.19,.51,0,.7-.1,.1-.22,.15-.35,.15Z"/><path class="cls-2" d="M69.24,17.48c-.13,0-.25-.05-.35-.15l-1.18-1.18c-.19-.19-.19-.51,0-.7,.19-.19,.51-.19,.7,0l1.18,1.18c.19,.19,.19,.51,0,.7-.1,.1-.22,.15-.35,.15Z"/></g><path class="cls-8" d="M63.63,16.13c-2.5,0-4.53-2.03-4.53-4.53s2.03-4.53,4.53-4.53,4.53,2.03,4.53,4.53-2.03,4.53-4.53,4.53Z"/><path class="cls-2" d="M66.03,15.55c-.16,0-.32-.08-.41-.22-.15-.23-.09-.54,.14-.69,1.04-.69,1.66-1.85,1.66-3.1,0-2.05-1.67-3.72-3.72-3.72-1.62,0-3.04,1.03-3.54,2.57-.08,.26-.36,.4-.63,.32-.26-.08-.4-.36-.32-.63,.63-1.95,2.43-3.26,4.49-3.26,2.6,0,4.71,2.11,4.71,4.71,0,1.58-.79,3.05-2.1,3.93-.08,.06-.18,.08-.27,.08Z"/></g><path class="cls-1" d="M63.5,18.74h-10.26c-1.79,0-3.24-1.45-3.24-3.24,0-1.46,.96-2.72,2.33-3.11,.27-2.13,2.07-3.74,4.26-3.74,1.14,0,2.22,.45,3.02,1.24,.48-.26,1.01-.4,1.56-.4,1.8,0,3.26,1.46,3.26,3.26,0,.03,0,.06,0,.09,1.24,.39,2.09,1.54,2.09,2.88,0,1.67-1.36,3.02-3.02,3.02Z"/><path class="cls-6" d="M63.5,18.74h-10.26c-1.79,0-3.24-1.45-3.24-3.24,0-1.46,.96-2.72,2.33-3.11,.27-2.13,2.07-3.74,4.26-3.74,1.14,0,2.22,.45,3.02,1.24,.48-.26,1.01-.4,1.56-.4,1.8,0,3.26,1.46,3.26,3.26,0,.03,0,.06,0,.09,1.24,.4,2.09,1.54,2.09,2.88,0,1.67-1.36,3.02-3.02,3.02Zm-6.91-9.1c-1.78,0-3.23,1.39-3.3,3.17,0,.24-.18,.43-.42,.47-1.09,.18-1.88,1.11-1.88,2.22,0,1.24,1.01,2.25,2.25,2.25h10.27c1.12,0,2.03-.91,2.03-2.03,0-1.01-.72-1.85-1.71-2.01-.13-.02-.25-.09-.33-.2-.08-.11-.11-.24-.09-.37,.02-.13,.03-.26,.03-.39,0-1.25-1.02-2.27-2.27-2.27-.49,0-.96,.15-1.35,.45-.21,.16-.51,.12-.68-.08-.63-.77-1.56-1.21-2.55-1.21Z"/></g><path class="cls-3" d="M96.55,37.57c-.43-.23-.97-.09-1.22,.3-.08,.13-.12,.26-.12,.4l-2.03,.96-2.96-1.56,2.52-1.01c.16,.12,.36,.2,.58,.2,.49,0,.89-.37,.89-.82s-.4-.82-.89-.82c-.22,0-.42,.07-.57,.19l-2.63-1.06,3.05-1.61,2.04,.96c0,.14,.04,.28,.12,.41,.25,.39,.79,.52,1.22,.3,.43-.23,.57-.72,.33-1.12-.25-.39-.79-.52-1.22-.3,0,0-.01,0-.02,.01l-1.57-.74,1.21-.64c.26,.11,.56,.11,.83-.03,.43-.23,.57-.72,.33-1.12-.25-.39-.79-.52-1.22-.3-.26,.14-.42,.38-.44,.64l-1.22,.64,.08-1.6s.02,0,.03-.02c.43-.23,.57-.72,.33-1.12s-.79-.52-1.22-.3c-.43,.23-.57,.72-.33,1.12,.08,.13,.19,.23,.32,.29l-.1,2.09-2.99,1.57,.31-2.6c.4-.08,.7-.41,.7-.8,0-.45-.4-.82-.89-.82s-.89,.37-.89,.82c0,.06,0,.13,.02,.19l-2.39,1.6v-3.2l1.93-1.12c.13,.07,.28,.11,.44,.11,.49,0,.89-.37,.89-.82s-.4-.82-.89-.82-.89,.37-.89,.82c0,.01,0,.02,0,.03l-1.48,.86v-1.28c.23-.15,.38-.39,.38-.67,0-.45-.4-.82-.89-.82s-.89,.37-.89,.82c0,.28,.15,.52,.38,.67v1.28l-1.49-.87s0-.01,0-.02c0-.45-.4-.82-.89-.82s-.89,.37-.89,.82,.4,.82,.89,.82c.16,0,.32-.04,.45-.11l1.93,1.13v3.2l-2.41-1.61c.01-.06,.02-.12,.02-.18,0-.45-.4-.82-.89-.82s-.89,.37-.89,.82c0,.39,.31,.72,.71,.8l.31,2.6-3-1.58-.1-2.09c.13-.07,.24-.17,.32-.29,.25-.39,.1-.89-.33-1.12-.43-.23-.97-.09-1.22,.3s-.1,.89,.33,1.12c.01,0,.02,.01,.03,.02l.08,1.6-1.22-.64c-.02-.26-.18-.5-.44-.64-.43-.23-.97-.09-1.22,.3s-.1,.89,.33,1.12c.26,.14,.57,.14,.83,.03l1.21,.64-1.57,.74s-.01,0-.02-.01c-.43-.23-.97-.09-1.22,.3s-.1,.89,.33,1.12c.43,.23,.97,.09,1.22-.3,.08-.13,.12-.27,.12-.41l2.04-.96,3.05,1.61-2.7,1.09c-.14-.09-.31-.14-.49-.14-.49,0-.89,.37-.89,.82s.4,.82,.89,.82c.26,0,.49-.1,.65-.26l2.45,.98-2.97,1.56-2.03-.96c0-.14-.04-.27-.12-.4-.25-.39-.79-.52-1.22-.3-.43,.23-.57,.72-.33,1.12,.25,.39,.79,.52,1.22,.3,.01,0,.02-.01,.03-.02l1.55,.74-1.22,.64c-.26-.11-.56-.11-.83,.03-.43,.23-.57,.72-.33,1.12,.25,.39,.79,.52,1.22,.3,.26-.14,.42-.38,.44-.64l1.21-.64-.08,1.61s-.01,0-.02,0c-.43,.23-.57,.72-.33,1.12,.25,.39,.79,.52,1.22,.3s.57-.72,.33-1.12c-.08-.13-.2-.23-.33-.3l.1-2.09,3.02-1.59-.31,2.57c-.41,.07-.73,.4-.73,.8,0,.45,.4,.82,.89,.82s.89-.37,.89-.82c0-.02,0-.04,0-.06l2.39-1.6v3.13l-1.93,1.13c-.13-.07-.29-.11-.45-.11-.49,0-.89,.37-.89,.82s.4,.82,.89,.82,.89-.37,.89-.82c0,0,0-.01,0-.02l1.49-.87v1.28c-.23,.15-.38,.39-.38,.67,0,.45,.4,.82,.89,.82s.89-.37,.89-.82c0-.28-.15-.52-.38-.67v-1.28l1.48,.86s0,.02,0,.03c0,.45,.4,.82,.89,.82s.89-.37,.89-.82-.4-.82-.89-.82c-.16,0-.31,.04-.44,.11l-1.93-1.12v-3.13l2.37,1.59s0,.05,0,.07c0,.45,.4,.82,.89,.82s.89-.37,.89-.82c0-.39-.31-.72-.71-.8l-.31-2.56,3.01,1.58,.1,2.09c-.13,.07-.25,.17-.33,.3-.25,.39-.1,.89,.33,1.12s.97,.09,1.22-.3c.25-.39,.1-.89-.33-1.12,0,0-.01,0-.02,0l-.08-1.61,1.21,.64c.02,.26,.18,.5,.44,.64,.43,.23,.97,.09,1.22-.3,.25-.39,.1-.89-.33-1.12-.26-.14-.57-.14-.83-.03l-1.22-.64,1.55-.74s.02,.01,.03,.02c.43,.23,.97,.09,1.22-.3,.25-.39,.1-.89-.33-1.12Zm-5.06-1.89h-2.6c-.22,0-.39,.16-.39,.36s.18,.36,.39,.36h2.56l-2.07,.83-.68-.36-1.43-.61c.02-.07,.02-.15,.02-.23,0-.11-.02-.21-.05-.31l1.45-.62,.59-.31,2.2,.89Zm-3-4.21l-1.34,2.16c-.11,.17-.04,.39,.15,.49,.06,.03,.13,.05,.19,.05,.14,0,.27-.07,.34-.18l1.23-1.98-.23,1.95-.65,.34-1.33,.85c-.14-.11-.3-.19-.47-.24l.14-1.49v-.63l1.98-1.32Zm-5.55,.51l1.28,2.01c.07,.11,.2,.18,.34,.18,.07,0,.13-.02,.2-.05,.19-.1,.25-.32,.14-.49l-1.37-2.15,1.96,1.31v.63l.14,1.49c-.18,.05-.34,.13-.48,.24l-1.34-.86-.63-.33-.24-1.99Zm-2.17,4.5h2.49c.22,0,.39-.16,.39-.36s-.18-.36-.39-.36h-2.95l2.4-.97,.59,.31,1.46,.62c-.03,.1-.04,.2-.04,.3,0,.08,0,.15,.02,.22l-1.45,.62-.67,.35-1.85-.74Zm2.85,4.04l1.42-1.96c.12-.16,.07-.39-.11-.5-.18-.11-.42-.06-.54,.1l-1.46,2.01,.26-2.17,.62-.32,1.29-.82c.15,.13,.33,.24,.53,.29l-.13,1.42v.7l-1.87,1.25Zm5.42-.59l-1.21-1.93c-.11-.17-.35-.23-.53-.13-.19,.1-.25,.32-.14,.49l1.46,2.32-2.09-1.4v-.7l-.14-1.42c.2-.06,.38-.16,.53-.29l1.28,.82,.63,.33,.23,1.92Z"/></svg>