<?xml version="1.0" encoding="UTF-8"?><svg id="_레이어_1" xmlns="http://www.w3.org/2000/svg" viewBox="0 0 120 15"><defs><style>.cls-1{fill:#f7f7f7;}.cls-1,.cls-2{fill-rule:evenodd;}.cls-2{fill:#ccc;}</style></defs><path class="cls-1" d="M120,15v-4c0-2.76-2.24-5-5-5h-17c-3,0-4.68-6-8-6-3.71,0-6,6-8,6H5C2.24,6,0,8.24,0,11v4H120Z"/><path class="cls-2" d="M115,6h-17c-3,0-4.68-6-8-6-3.71,0-6,6-8,6H5C2.24,6,0,8.24,0,11v4H1v-3c0-2.76,1.24-5,4-5H82c3,0,5-6,8-6s4,6,8,6h17c2.76,0,4,2.24,4,5v3h1v-4c0-2.76-2.24-5-5-5Z"/></svg>