<?xml version="1.0" encoding="UTF-8"?><svg id="_레이어_1" xmlns="http://www.w3.org/2000/svg" viewBox="0 0 445.79 45.11"><g><path d="M7.83,43.74c5.47-.12,7.22-1.18,7.22-3.55V2.36h-1.17C9.15,2.36,5.35,6.97,.93,15.62l-.93-.12L.37,1.24H38.74l.31,14.25-.93,.12C33.76,7.15,30.03,2.36,25.24,2.36h-1.11V40.19c0,2.36,1.68,3.42,7.22,3.55v.87H7.83v-.87Z"/><path d="M76.08,30.61c0-9.39,6.66-15.24,14.68-15.24,8.71,0,13.25,5.79,12.82,13.81h-18.73v1.24c0,7.59,3.24,12.07,9.39,12.07,3.8,0,6.22-1.87,8.59-5.1l.68,.44c-2.74,4.36-6.53,7.28-12.69,7.28-8.77,0-14.75-5.41-14.75-14.5Zm8.83-2.55h10.2c.75-7.09-.81-11.51-4.73-11.51-3.48,0-5.23,4.23-5.47,11.51Z"/><path d="M141.45,10.27c3.73-3.98,4.48-7.53-1.62-8.21v-.81h17.05v.81c-5.35,1.06-9.27,3.86-15.62,10.45l-4.36,4.54,13.75,19.66c3.42,4.85,4.6,6.53,8.71,7.03v.87h-20.72v-.87c4.48-.37,4.98-1.74,2.49-5.35l-10.27-14.99-3.36,3.55v13.25c0,2.55,1.49,3.36,5.85,3.55v.87h-21.4v-.87c5.16-.19,6.47-1.12,6.47-3.55V5.6c0-2.36-1.31-3.36-6.47-3.55v-.81h21.53v.75c-4.48,.25-5.97,1.12-5.97,3.61V25.14l13.94-14.87Z"/><path d="M156.67,30.3c0-9.08,6.22-14.93,15.06-14.93s14.99,5.6,14.99,14.68-6.22,15.06-14.99,15.06c-9.21,0-15.06-5.66-15.06-14.81Zm21.22-.12c0-8.96-1.99-13.63-6.47-13.63s-5.85,4.67-5.85,13.63,1.93,13.75,6.41,13.75,5.91-4.79,5.91-13.75Z"/><path d="M188.13,43.86c3.61-.06,4.36-.56,4.36-2.3V20.16c0-1.87-.75-3.05-4.36-3.11v-.75l12.51-.56v5.97c2.05-3.92,5.23-6.22,8.59-6.22,3.61,0,5.54,2.24,5.54,5.16s-1.87,4.79-4.42,4.79c-2.92,0-4.73-1.99-4.73-4.36,0-.81,.19-1.74,.44-2.49-1.87,.25-3.8,1.93-5.29,4.42v18.54c0,1.74,1,2.18,5.54,2.3v.75h-18.17v-.75Z"/><path d="M215.94,30.61c0-9.39,6.66-15.24,14.68-15.24,8.71,0,13.25,5.79,12.82,13.81h-18.73v1.24c0,7.59,3.24,12.07,9.39,12.07,3.8,0,6.22-1.87,8.59-5.1l.68,.44c-2.74,4.36-6.53,7.28-12.69,7.28-8.77,0-14.75-5.41-14.75-14.5Zm8.83-2.55h10.2c.75-7.09-.81-11.51-4.73-11.51-3.48,0-5.23,4.23-5.47,11.51Z"/><path d="M246.53,37.64c0-2.49,1.31-5.04,3.92-6.47,4.48-2.43,11.57-2.24,13.63-2.99v-5.04c0-4.42-1.31-6.41-4.6-6.41-1.8,0-3.48,.5-4.54,1.37,1.06,1.06,1.68,2.24,1.68,3.61,0,2.55-1.49,4.23-4.29,4.23-2.43,0-4.23-1.87-4.23-4.17,0-3.73,4.17-6.22,12.69-6.22,7.59,0,11.57,2.86,11.57,9.71v13.87c0,3.05,1.18,3.98,4.54,2.55l.37,.68c-2.3,1.49-4.17,2.49-6.66,2.49-3.92,0-5.54-1.56-6.04-4.73h-.25c-2.3,2.55-5.16,4.79-9.21,4.79-5.91,0-8.59-3.73-8.59-7.28Zm17.55,1.12v-9.33c-7.09,1.12-8.77,2.74-8.77,7.22,0,2.92,1.49,4.85,4.29,4.85,1.74,0,3.55-1.24,4.48-2.74Z"/><path d="M288.29,43.74c5.47-.12,7.22-1.18,7.22-3.55V2.36h-1.17c-4.73,0-8.52,4.6-12.94,13.25l-.93-.12,.37-14.25h38.36l.31,14.25-.93,.12c-4.36-8.46-8.09-13.25-12.88-13.25h-1.11V40.19c0,2.36,1.68,3.42,7.22,3.55v.87h-23.52v-.87Z"/><path d="M321.29,43.86c3.55-.06,4.48-.56,4.48-2.3V20.16c0-1.87-.44-3.05-3.98-3.11v-.75l12.26-.56v25.82c0,1.74,.68,2.24,4.36,2.3v.75h-17.11v-.75Zm3.55-37.7c0-2.99,1.99-5.04,4.92-5.04s4.85,1.93,4.85,4.85-1.93,4.98-4.85,4.98-4.92-1.74-4.92-4.79Z"/><path d="M358.1,43.86c2.55-.06,3.17-.56,3.17-2.3V25.14c0-3.73-1.37-5.91-4.48-5.91-2.24,0-3.61,1.62-5.23,4.11v18.23c0,1.74,.5,2.24,2.99,2.3v.75h-15.62v-.75c3.61-.06,4.36-.56,4.36-2.3V20.16c0-1.87-.75-3.05-4.36-3.11v-.75l12.51-.56v6.22c2.68-3.98,6.22-6.41,10.33-6.41,4.36,0,6.91,2.24,7.59,6.47,2.55-3.86,6.53-6.47,10.39-6.47,5.23,0,7.84,3.11,7.84,8.96v17.05c0,1.74,.68,2.24,4.29,2.3v.75h-15.62v-.75c2.49-.06,3.05-.56,3.05-2.3V25.14c0-3.73-1.18-5.91-4.29-5.91-1.62,0-3.73,1.43-5.54,4.11,.06,.44,.06,.75,.06,1v17.23c0,1.74,.68,2.24,3.3,2.3v.75h-14.75v-.75Z"/><path d="M391.6,30.61c0-9.39,6.66-15.24,14.68-15.24,8.71,0,13.25,5.79,12.82,13.81h-18.73v1.24c0,7.59,3.24,12.07,9.39,12.07,3.8,0,6.22-1.87,8.59-5.1l.68,.44c-2.74,4.36-6.53,7.28-12.69,7.28-8.77,0-14.75-5.41-14.75-14.5Zm8.83-2.55h10.2c.75-7.09-.81-11.51-4.73-11.51-3.48,0-5.23,4.23-5.47,11.51Z"/><path d="M422.46,34.41h.87c4.04,6.59,7.09,9.52,11.51,9.52,3.24,0,4.98-1.93,4.98-4.48,0-2.86-1.68-4.17-8.09-6.04-6.53-1.87-9.27-3.86-9.27-8.52,0-5.72,4.42-9.52,11.32-9.52,3.17,0,5.91,.87,7.78,2.12l1.74-2.12h.75v9.58h-.87c-3.61-5.72-5.85-8.4-9.77-8.4-2.8,0-4.67,1.8-4.67,4.67,0,2.55,2.68,3.8,6.91,4.92,6.66,1.62,10.14,3.92,10.14,9.08,0,5.6-4.48,9.89-11.57,9.89-2.3,0-7.34-1.24-9.08-2.3l-1.93,2.3h-.75v-10.7Z"/></g><path d="M71.69,41.56V24.51c0-5.85-2.61-8.96-7.84-8.96-4.04,0-8.03,2.43-10.7,6.41V0l-11.88,.6v.77c3.66,.12,3.6,1.11,3.6,3.04V41.56c0,1.74-.81,2.24-4.29,2.3v.75h15.87v-.75c-2.43-.06-3.3-.56-3.3-2.3V23.33c1.56-2.49,3.42-4.11,5.72-4.11,3.17,0,4.54,2.18,4.54,5.91v16.43c0,1.74-.93,2.24-3.36,2.3v.75h15.93v-.75c-3.61-.06-4.29-.56-4.29-2.3Z"/></svg>