<?xml version="1.0" encoding="UTF-8"?><svg id="_레이어_1" xmlns="http://www.w3.org/2000/svg" viewBox="0 0 167.6 17"><g><path d="M2.95,16.48c2.06-.05,2.72-.45,2.72-1.34V.89h-.44C3.45,.89,2.02,2.63,.35,5.89l-.35-.05L.14,.47H14.6l.12,5.37-.35,.05C12.72,2.7,11.32,.89,9.51,.89h-.42V15.15c0,.89,.63,1.29,2.72,1.34v.33H2.95v-.33Z"/><path d="M28.67,11.54c0-3.54,2.51-5.74,5.53-5.74,3.28,0,4.99,2.18,4.83,5.21h-7.06v.47c0,2.86,1.22,4.55,3.54,4.55,1.43,0,2.34-.7,3.24-1.92l.26,.16c-1.03,1.64-2.46,2.74-4.78,2.74-3.31,0-5.56-2.04-5.56-5.46Zm3.33-.96h3.85c.28-2.67-.3-4.34-1.78-4.34-1.31,0-1.97,1.59-2.06,4.34Z"/><path d="M52.64,3.87c1.41-1.5,1.69-2.84-.61-3.1V.47h6.42v.3c-2.02,.4-3.49,1.45-5.89,3.94l-1.64,1.71,5.18,7.41c1.29,1.83,1.74,2.46,3.28,2.65v.33h-7.81v-.33c1.69-.14,1.88-.66,.94-2.02l-3.87-5.65-1.27,1.34v4.99c0,.96,.56,1.27,2.2,1.34v.33h-8.07v-.33c1.95-.07,2.44-.42,2.44-1.34V2.11c0-.89-.49-1.27-2.44-1.34V.47h8.11v.28c-1.69,.09-2.25,.42-2.25,1.36v7.36l5.25-5.6Z"/><path d="M58.63,11.42c0-3.42,2.34-5.63,5.67-5.63s5.65,2.11,5.65,5.53-2.34,5.67-5.65,5.67c-3.47,0-5.67-2.13-5.67-5.58Zm8-.05c0-3.38-.75-5.14-2.44-5.14s-2.2,1.76-2.2,5.14,.73,5.18,2.42,5.18,2.23-1.81,2.23-5.18Z"/><path d="M70.49,16.53c1.36-.02,1.64-.21,1.64-.87V7.6c0-.7-.28-1.15-1.64-1.17v-.28l4.71-.21v2.25c.77-1.48,1.97-2.34,3.24-2.34,1.36,0,2.09,.84,2.09,1.95s-.7,1.81-1.66,1.81c-1.1,0-1.78-.75-1.78-1.64,0-.3,.07-.66,.16-.94-.7,.09-1.43,.73-1.99,1.66v6.99c0,.66,.38,.82,2.09,.87v.28h-6.85v-.28Z"/><path d="M81.4,11.54c0-3.54,2.51-5.74,5.53-5.74,3.28,0,4.99,2.18,4.83,5.21h-7.06v.47c0,2.86,1.22,4.55,3.54,4.55,1.43,0,2.34-.7,3.24-1.92l.26,.16c-1.03,1.64-2.46,2.74-4.78,2.74-3.31,0-5.56-2.04-5.56-5.46Zm3.33-.96h3.85c.28-2.67-.3-4.34-1.78-4.34-1.31,0-1.97,1.59-2.06,4.34Z"/><path d="M92.5,14.19c0-.94,.49-1.9,1.48-2.44,1.69-.91,4.36-.84,5.14-1.13v-1.9c0-1.66-.49-2.42-1.74-2.42-.68,0-1.31,.19-1.71,.52,.4,.4,.63,.84,.63,1.36,0,.96-.56,1.59-1.62,1.59-.91,0-1.59-.7-1.59-1.57,0-1.41,1.57-2.34,4.78-2.34,2.86,0,4.36,1.08,4.36,3.66v5.23c0,1.15,.45,1.5,1.71,.96l.14,.26c-.87,.56-1.57,.94-2.51,.94-1.48,0-2.09-.59-2.27-1.78h-.09c-.87,.96-1.95,1.81-3.47,1.81-2.23,0-3.24-1.41-3.24-2.74Zm6.61,.42v-3.52c-2.67,.42-3.31,1.03-3.31,2.72,0,1.1,.56,1.83,1.62,1.83,.66,0,1.34-.47,1.69-1.03Z"/><path d="M108.08,16.48c2.06-.05,2.72-.45,2.72-1.34V.89h-.44c-1.78,0-3.21,1.74-4.88,4.99l-.35-.05,.14-5.37h14.46l.12,5.37-.35,.05c-1.64-3.19-3.05-4.99-4.85-4.99h-.42V15.15c0,.89,.63,1.29,2.72,1.34v.33h-8.86v-.33Z"/><path d="M120.52,16.53c1.34-.02,1.69-.21,1.69-.87V7.6c0-.7-.16-1.15-1.5-1.17v-.28l4.62-.21V15.66c0,.66,.26,.84,1.64,.87v.28h-6.45v-.28Zm1.34-14.21c0-1.13,.75-1.9,1.85-1.9s1.83,.73,1.83,1.83-.73,1.88-1.83,1.88-1.85-.66-1.85-1.81Z"/><path d="M134.39,16.53c.96-.02,1.2-.21,1.2-.87v-6.19c0-1.41-.52-2.23-1.69-2.23-.84,0-1.36,.61-1.97,1.55v6.87c0,.66,.19,.84,1.13,.87v.28h-5.89v-.28c1.36-.02,1.64-.21,1.64-.87V7.6c0-.7-.28-1.15-1.64-1.17v-.28l4.71-.21v2.34c1.01-1.5,2.34-2.42,3.89-2.42,1.64,0,2.6,.84,2.86,2.44,.96-1.45,2.46-2.44,3.92-2.44,1.97,0,2.95,1.17,2.95,3.38v6.42c0,.66,.26,.84,1.62,.87v.28h-5.89v-.28c.94-.02,1.15-.21,1.15-.87v-6.19c0-1.41-.45-2.23-1.62-2.23-.61,0-1.41,.54-2.09,1.55,.02,.16,.02,.28,.02,.38v6.5c0,.66,.26,.84,1.24,.87v.28h-5.56v-.28Z"/><path d="M147.18,11.54c0-3.54,2.51-5.74,5.53-5.74,3.28,0,4.99,2.18,4.83,5.21h-7.06v.47c0,2.86,1.22,4.55,3.54,4.55,1.43,0,2.34-.7,3.24-1.92l.26,.16c-1.03,1.64-2.46,2.74-4.78,2.74-3.31,0-5.56-2.04-5.56-5.46Zm3.33-.96h3.85c.28-2.67-.3-4.34-1.78-4.34-1.31,0-1.97,1.59-2.06,4.34Z"/><path d="M158.81,12.97h.33c1.52,2.49,2.67,3.59,4.34,3.59,1.22,0,1.88-.73,1.88-1.69,0-1.08-.63-1.57-3.05-2.27-2.46-.7-3.49-1.45-3.49-3.21,0-2.16,1.66-3.59,4.27-3.59,1.2,0,2.23,.33,2.93,.8l.66-.8h.28v3.61h-.33c-1.36-2.16-2.2-3.17-3.68-3.17-1.06,0-1.76,.68-1.76,1.76,0,.96,1.01,1.43,2.6,1.85,2.51,.61,3.82,1.48,3.82,3.42,0,2.11-1.69,3.73-4.36,3.73-.87,0-2.77-.47-3.42-.87l-.73,.87h-.28v-4.03Z"/></g><path d="M27.02,15.66v-6.42c0-2.2-.98-3.38-2.95-3.38-1.52,0-3.02,.91-4.03,2.42V0l-4.48,.23v.29c1.38,.04,1.36,.42,1.36,1.15V15.66c0,.66-.3,.84-1.62,.87v.28h5.98v-.28c-.91-.02-1.24-.21-1.24-.87v-6.87c.59-.94,1.29-1.55,2.16-1.55,1.2,0,1.71,.82,1.71,2.23v6.19c0,.66-.35,.84-1.27,.87v.28h6v-.28c-1.36-.02-1.62-.21-1.62-.87Z"/></svg>