<?xml version="1.0" encoding="UTF-8"?><svg id="_레이어_1" xmlns="http://www.w3.org/2000/svg" viewBox="0 0 246.48 25"><defs><style>.cls-1{fill:#fff;}</style></defs><g><path class="cls-1" d="M4.34,24.24c3.03-.07,4-.66,4-1.97V1.31h-.65C5.07,1.31,2.97,3.86,.52,8.66l-.52-.07L.21,.69H21.47l.17,7.9-.52,.07c-2.41-4.69-4.48-7.34-7.14-7.34h-.61V22.28c0,1.31,.93,1.9,4,1.97v.48H4.34v-.48Z"/><path class="cls-1" d="M42.16,16.97c0-5.21,3.69-8.45,8.14-8.45,4.83,0,7.34,3.21,7.1,7.66h-10.38v.69c0,4.21,1.79,6.69,5.21,6.69,2.1,0,3.45-1.03,4.76-2.83l.38,.24c-1.52,2.41-3.62,4.03-7.03,4.03-4.86,0-8.17-3-8.17-8.03Zm4.9-1.41h5.66c.41-3.93-.45-6.38-2.62-6.38-1.93,0-2.9,2.34-3.03,6.38Z"/><path class="cls-1" d="M77.41,5.69c2.07-2.21,2.48-4.17-.9-4.55v-.45h9.45v.45c-2.97,.59-5.14,2.14-8.66,5.79l-2.41,2.52,7.62,10.9c1.9,2.69,2.55,3.62,4.83,3.9v.48h-11.48v-.48c2.48-.21,2.76-.97,1.38-2.97l-5.69-8.31-1.86,1.97v7.34c0,1.41,.83,1.86,3.24,1.97v.48h-11.86v-.48c2.86-.1,3.59-.62,3.59-1.97V3.1c0-1.31-.72-1.86-3.59-1.97v-.45h11.93v.41c-2.48,.14-3.31,.62-3.31,2V13.93l7.72-8.24Z"/><path class="cls-1" d="M86.22,16.79c0-5.03,3.45-8.28,8.34-8.28s8.31,3.1,8.31,8.14-3.45,8.34-8.31,8.34c-5.1,0-8.34-3.14-8.34-8.21Zm11.76-.07c0-4.97-1.1-7.55-3.59-7.55s-3.24,2.59-3.24,7.55,1.07,7.62,3.55,7.62,3.28-2.66,3.28-7.62Z"/><path class="cls-1" d="M103.66,24.31c2-.03,2.41-.31,2.41-1.28V11.17c0-1.03-.41-1.69-2.41-1.72v-.41l6.93-.31v3.31c1.14-2.17,2.9-3.45,4.76-3.45,2,0,3.07,1.24,3.07,2.86s-1.03,2.66-2.45,2.66c-1.62,0-2.62-1.1-2.62-2.41,0-.45,.1-.97,.24-1.38-1.03,.14-2.1,1.07-2.93,2.45v10.28c0,.97,.55,1.21,3.07,1.28v.41h-10.07v-.41Z"/><path class="cls-1" d="M119.71,16.97c0-5.21,3.69-8.45,8.14-8.45,4.83,0,7.34,3.21,7.1,7.66h-10.38v.69c0,4.21,1.79,6.69,5.21,6.69,2.1,0,3.45-1.03,4.76-2.83l.38,.24c-1.52,2.41-3.62,4.03-7.03,4.03-4.86,0-8.17-3-8.17-8.03Zm4.9-1.41h5.66c.41-3.93-.45-6.38-2.62-6.38-1.93,0-2.9,2.34-3.03,6.38Z"/><path class="cls-1" d="M136.03,20.86c0-1.38,.72-2.79,2.17-3.59,2.48-1.34,6.41-1.24,7.55-1.66v-2.79c0-2.45-.72-3.55-2.55-3.55-1,0-1.93,.28-2.52,.76,.59,.59,.93,1.24,.93,2,0,1.41-.83,2.34-2.38,2.34-1.34,0-2.34-1.03-2.34-2.31,0-2.07,2.31-3.45,7.03-3.45,4.21,0,6.41,1.59,6.41,5.38v7.69c0,1.69,.66,2.21,2.52,1.41l.21,.38c-1.28,.83-2.31,1.38-3.69,1.38-2.17,0-3.07-.86-3.34-2.62h-.14c-1.28,1.41-2.86,2.66-5.1,2.66-3.28,0-4.76-2.07-4.76-4.03Zm9.72,.62v-5.17c-3.93,.62-4.86,1.52-4.86,4,0,1.62,.83,2.69,2.38,2.69,.97,0,1.97-.69,2.48-1.52Z"/><path class="cls-1" d="M158.94,24.24c3.03-.07,4-.66,4-1.97V1.31h-.65c-2.62,0-4.72,2.55-7.17,7.34l-.52-.07,.21-7.9h21.26l.17,7.9-.52,.07c-2.41-4.69-4.48-7.34-7.14-7.34h-.61V22.28c0,1.31,.93,1.9,4,1.97v.48h-13.03v-.48Z"/><path class="cls-1" d="M177.23,24.31c1.97-.03,2.48-.31,2.48-1.28V11.17c0-1.03-.24-1.69-2.21-1.72v-.41l6.79-.31v14.31c0,.97,.38,1.24,2.41,1.28v.41h-9.48v-.41Zm1.97-20.9c0-1.66,1.1-2.79,2.72-2.79s2.69,1.07,2.69,2.69-1.07,2.76-2.69,2.76-2.72-.97-2.72-2.66Z"/><path class="cls-1" d="M197.64,24.31c1.41-.03,1.76-.31,1.76-1.28V13.93c0-2.07-.76-3.28-2.48-3.28-1.24,0-2,.9-2.9,2.28v10.1c0,.97,.28,1.24,1.66,1.28v.41h-8.66v-.41c2-.03,2.41-.31,2.41-1.28V11.17c0-1.03-.41-1.69-2.41-1.72v-.41l6.93-.31v3.45c1.48-2.21,3.45-3.55,5.72-3.55,2.41,0,3.83,1.24,4.21,3.59,1.41-2.14,3.62-3.59,5.76-3.59,2.9,0,4.34,1.72,4.34,4.97v9.45c0,.97,.38,1.24,2.38,1.28v.41h-8.66v-.41c1.38-.03,1.69-.31,1.69-1.28V13.93c0-2.07-.66-3.28-2.38-3.28-.9,0-2.07,.79-3.07,2.28,.03,.24,.03,.41,.03,.55v9.55c0,.97,.38,1.24,1.83,1.28v.41h-8.17v-.41Z"/><path class="cls-1" d="M216.44,16.97c0-5.21,3.69-8.45,8.14-8.45,4.83,0,7.34,3.21,7.1,7.66h-10.38v.69c0,4.21,1.79,6.69,5.21,6.69,2.1,0,3.45-1.03,4.76-2.83l.38,.24c-1.52,2.41-3.62,4.03-7.03,4.03-4.86,0-8.17-3-8.17-8.03Zm4.9-1.41h5.66c.41-3.93-.45-6.38-2.62-6.38-1.93,0-2.9,2.34-3.03,6.38Z"/><path class="cls-1" d="M233.55,19.07h.48c2.24,3.66,3.93,5.28,6.38,5.28,1.79,0,2.76-1.07,2.76-2.48,0-1.59-.93-2.31-4.48-3.34-3.62-1.03-5.14-2.14-5.14-4.72,0-3.17,2.45-5.28,6.28-5.28,1.76,0,3.28,.48,4.31,1.17l.97-1.17h.41v5.31h-.48c-2-3.17-3.24-4.66-5.41-4.66-1.55,0-2.59,1-2.59,2.59,0,1.41,1.48,2.1,3.83,2.72,3.69,.9,5.62,2.17,5.62,5.03,0,3.1-2.48,5.48-6.41,5.48-1.28,0-4.07-.69-5.03-1.28l-1.07,1.28h-.41v-5.93Z"/></g><path class="cls-1" d="M39.73,23.03V13.59c0-3.24-1.45-4.97-4.34-4.97-2.24,0-4.45,1.34-5.93,3.55V0l-6.58,.33v.43c2.03,.07,2,.62,2,1.68V23.03c0,.97-.45,1.24-2.38,1.28v.41h8.79v-.41c-1.34-.03-1.83-.31-1.83-1.28V12.93c.86-1.38,1.9-2.28,3.17-2.28,1.76,0,2.52,1.21,2.52,3.28v9.1c0,.97-.52,1.24-1.86,1.28v.41h8.83v-.41c-2-.03-2.38-.31-2.38-1.28Z"/></svg>